<?xml version="1.0" encoding="UTF-8"?>
<svg version="1.1" xmlns="http://www.w3.org/2000/svg" width="267" height="189">
<path d="M0 0 C88.11 0 176.22 0 267 0 C267 62.37 267 124.74 267 189 C178.89 189 90.78 189 0 189 C0 126.63 0 64.26 0 0 Z " fill="#7A7A7B" transform="translate(0,0)"/>
<path d="M0 0 C88.11 0 176.22 0 267 0 C267 20.13 267 40.26 267 61 C178.89 61 90.78 61 0 61 C0 40.87 0 20.74 0 0 Z " fill="#7D7D7E" transform="translate(0,128)"/>
<path d="M0 0 C88.11 0 176.22 0 267 0 C267 20.13 267 40.26 267 61 C178.89 61 90.78 61 0 61 C0 40.87 0 20.74 0 0 Z " fill="#52505E" transform="translate(0,67)"/>
<path d="M0 0 C88.11 0 176.22 0 267 0 C267 4.95 267 9.9 267 15 C234.32800514 15.83538285 201.69242533 16.09990115 169.01115489 15.89946485 C163.03232629 15.8641827 157.05346262 15.83622192 151.07460022 15.80735779 C139.84225717 15.75208354 128.60995792 15.6905888 117.37766129 15.62663645 C104.55212664 15.55393243 91.72655774 15.48850215 78.90098178 15.42356598 C52.60061007 15.29024973 26.30029189 15.1481789 0 15 C0 10.05 0 5.1 0 0 Z " fill="#373645" transform="translate(0,67)"/>
<path d="M0 0 C71.94 0 143.88 0 218 0 C218 0.33 218 0.66 218 1 C242.255 1.495 242.255 1.495 267 2 C267 5.63 267 9.26 267 13 C178.89 13 90.78 13 0 13 C0 8.71 0 4.42 0 0 Z " fill="#3B394C" transform="translate(0,115)"/>
<path d="M0 0 C88.11 0 176.22 0 267 0 C267 3.63 267 7.26 267 11 C178.89 11 90.78 11 0 11 C0 7.37 0 3.74 0 0 Z " fill="#777779" transform="translate(0,0)"/>
<path d="M0 0 C88.11 0 176.22 0 267 0 C267 2.31 267 4.62 267 7 C178.89 7 90.78 7 0 7 C0 4.69 0 2.38 0 0 Z " fill="#53515F" transform="translate(0,92)"/>
<path d="M0 0 C88.11 0 176.22 0 267 0 C267 1.98 267 3.96 267 6 C178.89 6 90.78 6 0 6 C0 4.02 0 2.04 0 0 Z " fill="#454354" transform="translate(0,122)"/>
<path d="M0 0 C88.11 0 176.22 0 267 0 C267 1.65 267 3.3 267 5 C218.17449794 5.99897636 169.36028805 6.1582138 120.5258249 6.12856841 C112.47962666 6.1242029 104.43344395 6.12735213 96.38724667 6.1321975 C88.47055485 6.13676711 80.55386965 6.13736269 72.63717693 6.13475883 C67.97543053 6.13322643 63.3136946 6.13291763 58.65194893 6.13629532 C39.07628931 6.14862563 19.55423457 6.04768574 0 5 C0 3.35 0 1.7 0 0 Z " fill="#413F4C" transform="translate(0,99)"/>
<path d="M0 0 C88.11 0 176.22 0 267 0 C267 1.98 267 3.96 267 6 C235.65 6 204.3 6 172 6 C172 5.67 172 5.34 172 5 C115.24 4.67 58.48 4.34 0 4 C0 2.68 0 1.36 0 0 Z " fill="#535160" transform="translate(0,111)"/>
<path d="M0 0 C88.11 0 176.22 0 267 0 C267 1.32 267 2.64 267 4 C234.32800514 4.83538285 201.69242533 5.09990115 169.01115489 4.89946485 C163.03232629 4.8641827 157.05346262 4.83622192 151.07460022 4.80735779 C139.84225717 4.75208354 128.60995792 4.6905888 117.37766129 4.62663645 C104.55212664 4.55393243 91.72655774 4.48850215 78.90098178 4.42356598 C52.60061007 4.29024973 26.30029189 4.1481789 0 4 C0 2.68 0 1.36 0 0 Z " fill="#444253" transform="translate(0,78)"/>
<path d="M0 0 C88.11 0 176.22 0 267 0 C267 0.99 267 1.98 267 3 C241.39061746 4.05707603 215.80158278 4.14954915 190.17357373 4.1343255 C184.45189194 4.13174686 178.73021154 4.13415421 173.00852966 4.13571167 C163.41819973 4.13751659 153.82787757 4.13517051 144.23754883 4.13037109 C133.22085816 4.12492081 122.20418599 4.12670351 111.18749577 4.1321975 C101.64088967 4.13676383 92.09428907 4.13736241 82.54768223 4.13475883 C76.88388735 4.13321668 71.22010112 4.13294482 65.55630684 4.13629532 C20.61981642 4.15937764 20.61981642 4.15937764 0 3 C0 2.01 0 1.02 0 0 Z " fill="#222033" transform="translate(0,75)"/>
<path d="M0 0 C88.11 0 176.22 0 267 0 C267 0.99 267 1.98 267 3 C178.89 3 90.78 3 0 3 C0 2.01 0 1.02 0 0 Z " fill="#8A8A92" transform="translate(0,128)"/>
<path d="M0 0 C88.11 0 176.22 0 267 0 C267 0.99 267 1.98 267 3 C178.89 3 90.78 3 0 3 C0 2.01 0 1.02 0 0 Z " fill="#262433" transform="translate(0,119)"/>
<path d="M0 0 C88.11 0 176.22 0 267 0 C267 0.99 267 1.98 267 3 C178.89 3 90.78 3 0 3 C0 2.01 0 1.02 0 0 Z " fill="#6F6D7F" transform="translate(0,92)"/>
<path d="M0 0 C88.11 0 176.22 0 267 0 C267 0.99 267 1.98 267 3 C178.89 3 90.78 3 0 3 C0 2.01 0 1.02 0 0 Z " fill="#383740" transform="translate(0,89)"/>
<path d="M0 0 C88.11 0 176.22 0 267 0 C267 0.99 267 1.98 267 3 C178.89 3 90.78 3 0 3 C0 2.01 0 1.02 0 0 Z " fill="#99989D" transform="translate(0,64)"/>
<path d="M0 0 C88.11 0 176.22 0 267 0 C267 0.99 267 1.98 267 3 C178.89 3 90.78 3 0 3 C0 2.01 0 1.02 0 0 Z " fill="#525253" transform="translate(0,61)"/>
<path d="M0 0 C88.11 0 176.22 0 267 0 C267 0.99 267 1.98 267 3 C178.89 3 90.78 3 0 3 C0 2.01 0 1.02 0 0 Z " fill="#9E9EA1" transform="translate(0,0)"/>
<path d="M0 0 C88.11 0 176.22 0 267 0 C267 0.99 267 1.98 267 3 C178.89 3 90.78 3 0 3 C0 2.01 0 1.02 0 0 Z " fill="#A6A6A7" transform="translate(0,44)"/>
<path d="M0 0 C88.11 0 176.22 0 267 0 C267 0.99 267 1.98 267 3 C178.89 3 90.78 3 0 3 C0 2.01 0 1.02 0 0 Z " fill="#727081" transform="translate(0,86)"/>
<path d="M0 0 C88.11 0 176.22 0 267 0 C267 0.99 267 1.98 267 3 C178.89 3 90.78 3 0 3 C0 2.01 0 1.02 0 0 Z " fill="#504D68" transform="translate(0,72)"/>
<path d="M0 0 C88.11 0 176.22 0 267 0 C267 0.99 267 1.98 267 3 C178.89 3 90.78 3 0 3 C0 2.01 0 1.02 0 0 Z " fill="#787684" transform="translate(0,108)"/>
<path d="M0 0 C88.11 0 176.22 0 267 0 C267 0.66 267 1.32 267 2 C177.97042903 3.00364553 89.02775342 3.16063324 0 2 C0 1.34 0 0.68 0 0 Z " fill="#3B384F" transform="translate(0,122)"/>
</svg>
